<?xml version="1.0" encoding="UTF-8"?>
<svg id="Layer_1" data-name="Layer 1" xmlns="http://www.w3.org/2000/svg" viewBox="0 0 50.96 50.96">
  <defs>
    <style>
      .cls-1 {
        fill: none;
      }

      .cls-2 {
        fill: #fff;
      }

      .cls-3 {
        fill: #65aa72;
      }

      .cls-4 {
        fill: #2f75a6;
      }

      .cls-5 {
        fill: #c24747;
      }

      .cls-6 {
        fill: #d67f48;
      }

      .cls-7 {
        fill: #dbd175;
      }

      .cls-8 {
        fill: #620043;
      }

      .cls-9 {
        fill: #795ea0;
      }
    </style>
  </defs>
  <path class="cls-2" d="M46.32,22.26c-.15-1.84-.54-3.66-1.18-5.41-.23-.64-.49-1.26-.78-1.86-.86-1.8-1.96-3.46-3.28-4.94l-.05-.06c-.61-.67-1.21-1.27-1.83-1.81-.32-.28-.62-.52-.92-.75-.14-.11-.27-.21-.41-.31-.45-.33-.89-.63-1.33-.9l-.05-.03c-.23-.14-.46-.29-.7-.42-.24-.14-.49-.27-.74-.4-.33-.17-.66-.33-.99-.48l-.12-.06c-.18-.08-.36-.16-.54-.24-.45-.19-.93-.36-1.42-.52-.19-.06-.38-.12-.57-.18-.56-.16-1.06-.29-1.55-.4h-.05s-.1-.04-.15-.05c-.54-.11-1.13-.2-1.81-.28-.16-.02-.32-.03-.47-.05-.72-.07-1.33-.1-1.9-.1-.64,0-1.29,.03-2.01,.1h-.06s-.13,.02-.13,.02c-.56,.06-1.15,.15-1.8,.28l-.11,.02c-.08,.01-.16,.03-.24,.05-.5,.11-1.02,.24-1.6,.41-.17,.05-.33,.1-.49,.15-.45,.15-.91,.31-1.4,.51-.21,.09-.43,.18-.64,.27-.4,.18-.8,.37-1.18,.57-.26,.14-.51,.28-.77,.43-.18,.1-.35,.21-.52,.32l-.05,.03c-.44,.27-.87,.56-1.27,.85l-.19,.14-.07,.05c-.51,.38-1,.78-1.46,1.21l-.08,.07c-.96,.88-1.85,1.85-2.63,2.89h0s-.04,.05-.04,.05c-.36,.48-.69,.97-1,1.46l-.04,.07c-.34,.56-.62,1.05-.87,1.55l-.04,.08c-.62,1.24-1.1,2.51-1.46,3.81h0s-.01,.05-.01,.05c-.19,.71-.35,1.46-.47,2.23-.06,.41-.14,.95-.19,1.53-.05,.55-.09,1.14-.09,1.73,0,.49,.02,1.01,.07,1.65,.04,.47,.1,.97,.19,1.56,.06,.38,.13,.76,.21,1.13l.02,.1c.16,.71,.34,1.37,.54,2.02l.03,.08,.06,.17c.33,.98,.74,1.95,1.22,2.87,.07,.13,.14,.26,.21,.39,1.31,2.41,3.05,4.51,5.16,6.23,.05,.04,.1,.08,.15,.12l.08,.06c.44,.35,.88,.67,1.31,.96,.12,.08,.25,.16,.37,.24l.07,.04c.4,.26,.81,.5,1.21,.72,.18,.1,.37,.2,.56,.3,.37,.19,.76,.37,1.21,.56l.15,.07c.15,.07,.31,.13,.46,.19,.37,.15,.78,.29,1.31,.46l.19,.06c.13,.04,.25,.09,.38,.12,.62,.18,1.2,.32,1.77,.43,.02,.04,.06,.09,.1,.16,.05,.1,.1,.2,.16,.32,.18,.39,.36,.9,.55,1.43,.72,2.01,1.47,4.09,3.18,4.09s2.4-2.05,3.13-4.03c.2-.55,.4-1.08,.58-1.48,.05-.12,.11-.22,.16-.32,.05-.08,.08-.14,.11-.17,.07-.01,.13-.03,.2-.05,.06-.02,.13-.03,.19-.05h.03s0,0,0,0c3.66-.79,7.06-2.55,9.82-5.12,.4-.37,.77-.74,1.13-1.13,.8-.86,1.52-1.79,2.16-2.77l.13-.2c.58-.91,1.09-1.87,1.52-2.85,.08-.18,.15-.35,.22-.53,.11-.28,.23-.56,.33-.85,.14-.39,.27-.79,.38-1.18,.09-.31,.16-.62,.24-.93v-.05s.03-.08,.03-.08c.05-.2,.09-.39,.13-.59,.06-.28,.11-.57,.15-.86,.05-.31,.09-.62,.13-.94l.02-.16c.02-.17,.04-.34,.05-.51,.05-.64,.08-1.18,.08-1.7,0-.59-.04-1.16-.08-1.69Zm-17.12,1.74c0,2.05-1.67,3.72-3.72,3.72s-3.72-1.67-3.72-3.72,1.67-3.72,3.72-3.72,3.72,1.67,3.72,3.72Z"/>
  <g>
    <path class="cls-1" d="M21.16,20.26s0,0,0,0c0,0,0,0,0,0Z"/>
    <path class="cls-1" d="M19.8,23.35c0-.06,.02-.13,.03-.19,0,.06-.02,.13-.03,.19Z"/>
    <path class="cls-1" d="M20.41,26.65s-.02-.03-.02-.05c0,.02,.02,.03,.02,.05Z"/>
    <path class="cls-1" d="M19.91,22.71c.02-.07,.03-.13,.05-.2-.02,.07-.04,.13-.05,.2Z"/>
    <path class="cls-1" d="M20.1,22.07c.02-.05,.04-.11,.06-.16-.02,.05-.04,.11-.06,.16Z"/>
    <path class="cls-1" d="M20.39,21.4s.02-.03,.02-.05c0,.02-.02,.03-.02,.05Z"/>
    <path class="cls-1" d="M24.5,18.38c.05,0,.1-.02,.15-.02-.05,0-.1,.01-.15,.02Z"/>
    <path class="cls-1" d="M21.61,19.8s.02-.01,.02-.02c0,0-.02,.01-.02,.02Z"/>
    <path class="cls-1" d="M26.09,18.32c.06,0,.11,.02,.17,.03-.06,0-.11-.02-.17-.03Z"/>
    <path class="cls-1" d="M22.88,18.91s0,0,0,0c0,0,0,0,0,0Z"/>
    <path class="cls-1" d="M23.67,18.58s.02,0,.03-.01c0,0-.02,0-.03,.01Z"/>
    <path class="cls-1" d="M27.66,29.29s-.03,0-.04,.01c.01,0,.03,0,.04-.01Z"/>
    <path class="cls-1" d="M26.69,18.42c.06,.01,.11,.03,.17,.04-.06-.01-.11-.03-.17-.04Z"/>
    <path class="cls-1" d="M28.33,28.95s-.03,.02-.05,.03c.02,0,.03-.02,.05-.03Z"/>
    <path class="cls-1" d="M28.93,28.56s-.04,.03-.06,.05c.02-.02,.04-.03,.06-.05Z"/>
    <path class="cls-1" d="M27.04,29.5c-.06,.02-.12,.03-.18,.05,.06-.02,.12-.03,.18-.05Z"/>
    <path class="cls-1" d="M24.46,29.62s-.05,0-.08-.01c.03,0,.05,0,.08,.01Z"/>
    <path class="cls-1" d="M26.36,29.65c-.07,.01-.13,.02-.2,.03,.07,0,.13-.02,.2-.03Z"/>
    <path class="cls-1" d="M21.7,28.29s-.06-.06-.09-.08c.03,.03,.06,.06,.09,.08Z"/>
    <path class="cls-1" d="M22.54,28.9s-.08-.04-.11-.07c.04,.02,.07,.05,.11,.07Z"/>
    <path class="cls-1" d="M20.99,27.53s-.04-.05-.06-.08c.02,.03,.04,.05,.06,.08Z"/>
    <path class="cls-1" d="M23.47,29.35s-.08-.03-.11-.04c.04,.01,.08,.03,.11,.04Z"/>
    <path class="cls-1" d="M28.36,19.07s.05,.03,.08,.05c-.03-.02-.05-.03-.08-.05Z"/>
    <path class="cls-1" d="M30.8,21.92s.02,.05,.03,.07c0-.02-.02-.05-.03-.07Z"/>
    <path class="cls-1" d="M31.14,24.74c0,.06-.02,.11-.03,.17,0-.06,.02-.11,.03-.17Z"/>
    <path class="cls-1" d="M27.27,18.57s.1,.04,.15,.05c-.05-.02-.1-.04-.15-.05Z"/>
    <path class="cls-1" d="M30.98,25.55s0,.04-.01,.05c0-.02,0-.04,.01-.05Z"/>
    <polygon class="cls-1" points="30.34 27.01 30.34 27.01 30.34 27.01 30.34 27.01"/>
    <path class="cls-1" d="M30.2,24c0-2.6-2.12-4.72-4.72-4.72s-4.72,2.12-4.72,4.72,2.12,4.72,4.72,4.72,4.72-2.12,4.72-4.72Z"/>
    <path class="cls-1" d="M31.09,22.92s0,.05,.01,.08c0-.03,0-.05-.01-.08Z"/>
    <path class="cls-1" d="M30.35,21.02s.01,.02,.02,.03c0-.01-.01-.02-.02-.03Z"/>
    <path class="cls-1" d="M28.87,19.4s.03,.02,.05,.04c-.02-.01-.03-.02-.05-.04Z"/>
    <path class="cls-1" d="M27.83,18.79s.08,.04,.12,.06c-.04-.02-.08-.04-.12-.06Z"/>
    <path class="cls-1" d="M29.33,19.79s.01,.01,.02,.02c0,0-.01-.01-.02-.02Z"/>
    <polygon class="cls-1" points="29.76 20.22 29.76 20.22 29.76 20.22 29.76 20.22"/>
    <path class="cls-5" d="M33.65,5.79c.32,.14,.64,.3,.95,.46-.31-.16-.63-.31-.95-.46Z"/>
    <path class="cls-5" d="M25.48,4.02c.61,0,1.21,.04,1.81,.09-.6-.05-1.2-.09-1.81-.09Z"/>
    <path class="cls-5" d="M27.74,4.16c.58,.07,1.16,.15,1.72,.26-.56-.11-1.14-.2-1.72-.26Z"/>
    <path class="cls-5" d="M29.65,4.47c.5,.11,.99,.24,1.47,.38-.48-.14-.97-.27-1.47-.38Z"/>
    <path class="cls-5" d="M31.66,5.01c.46,.15,.91,.31,1.35,.5-.44-.18-.89-.35-1.35-.5Z"/>
    <path class="cls-5" d="M16.28,6.28c.37-.19,.74-.37,1.13-.54-.38,.17-.76,.35-1.13,.54Z"/>
    <path class="cls-5" d="M13.55,8.02c.08-.06,.16-.12,.24-.18-.08,.06-.16,.12-.24,.18Z"/>
    <path class="cls-5" d="M23.57,4.12c.63-.06,1.27-.1,1.91-.1-.65,0-1.28,.04-1.91,.1Z"/>
    <path class="cls-5" d="M15,7.03c.18-.11,.36-.23,.55-.33-.19,.11-.37,.22-.55,.33Z"/>
    <path class="cls-5" d="M21.67,4.4c.57-.11,1.14-.2,1.72-.26-.58,.06-1.15,.15-1.72,.26Z"/>
    <path class="cls-5" d="M19.81,4.85c.5-.15,1.01-.28,1.53-.39-.52,.11-1.02,.24-1.53,.39Z"/>
    <path class="cls-5" d="M18.01,5.48c.44-.18,.88-.34,1.33-.49-.45,.15-.89,.31-1.33,.49Z"/>
    <path class="cls-5" d="M35.3,6.62c.24,.14,.48,.29,.72,.44-.24-.15-.47-.3-.72-.44Z"/>
    <path class="cls-5" d="M14.06,11.3l1.66,.29,.83,.14,.83,.13,1.65,.25c.55,.08,1.11,.15,1.66,.22l.83,.11c.27,.03,.55,.06,.82,.09l1.65,.19,.21,.03,.2,.02,.41,.04,.83,.09c.55,.06,1.1,.12,1.65,.17l1.65,.15c.28,.03,.55,.04,.82,.07l.82,.06,.82,.06,.41,.03,.41,.03,1.64,.09,.41,.03h.41s.82,.05,.82,.05l.82,.03h.41s.41,.02,.41,.02c1.21,.03,2.43,.03,3.64,.03-3.31-4.93-8.94-8.18-15.31-8.18-5.11,0-9.74,2.09-13.08,5.46h0s1.66,.31,1.66,.31Z"/>
    <path class="cls-5" d="M12.08,9.24s.05-.05,.08-.07c-.03,.02-.05,.05-.08,.07Z"/>
    <path class="cls-5" d="M37.25,7.9c.14,.1,.28,.21,.42,.31-.14-.11-.28-.21-.42-.31Z"/>
    <path class="cls-5" d="M38.51,8.9s.02,.02,.03,.03c-.01,0-.02-.02-.03-.03Z"/>
    <path class="cls-5" d="M40.26,10.62s.05,.06,.08,.09c-.03-.03-.05-.06-.08-.09Z"/>
    <path class="cls-6" d="M43.46,15.41s0,0,0,0c0,0,0,0,0,0Z"/>
    <path class="cls-6" d="M8.52,13.53s.04-.07,.06-.1c-.02,.03-.04,.07-.06,.1Z"/>
    <path class="cls-6" d="M7.65,15.08s.04-.07,.05-.11c-.02,.04-.04,.07-.05,.11Z"/>
    <path class="cls-6" d="M11.1,17.54c.32,.07,.63,.13,.95,.19s.63,.12,.95,.18c2.55,.48,5.1,.91,7.66,1.27,.49,.07,.99,.13,1.48,.19,.23-.17,.48-.32,.74-.46,0,0,0,0,0,0,.25-.13,.52-.24,.79-.33,0,0,.02,0,.03-.01,.26-.08,.52-.15,.79-.2,.05,0,.1-.02,.15-.02,.27-.04,.55-.07,.83-.07,.21,0,.41,.01,.61,.03,.06,0,.11,.02,.17,.03,.15,.02,.29,.04,.43,.07,.06,.01,.11,.03,.17,.04,.14,.03,.28,.07,.41,.11,.05,.02,.1,.04,.15,.05,.14,.05,.28,.1,.41,.16,.04,.02,.08,.04,.12,.06,.14,.07,.28,.14,.42,.22,.03,.02,.05,.03,.08,.05,.15,.09,.29,.18,.42,.28,.02,.01,.03,.02,.05,.04,.15,.11,.29,.23,.42,.35,0,0,.01,.01,.02,.02,.14,.13,.28,.27,.41,.42h0c.79,.07,1.59,.15,2.38,.21,1.27,.1,2.55,.18,3.82,.25,2.55,.14,5.09,.24,7.62,.28,.02,0,.04,0,.06,0-.43-2.65-1.42-5.11-2.85-7.26-1.21,0-2.42,0-3.64-.03h-.41s-.41-.02-.41-.02l-.82-.03-.82-.03h-.41s-.41-.04-.41-.04l-1.64-.09-.41-.03-.41-.03-.82-.06-.82-.06c-.27-.02-.55-.04-.82-.07l-1.65-.15c-.55-.05-1.1-.11-1.65-.17l-.83-.09-.41-.04-.2-.02-.21-.03-1.65-.19c-.27-.03-.55-.06-.82-.09l-.83-.11c-.55-.07-1.1-.14-1.66-.22l-1.65-.25-.83-.13-.83-.14-1.66-.29-1.66-.31h0c-1.69,1.7-3.04,3.73-3.96,5.97,.25,.06,.51,.12,.76,.17,.63,.14,1.27,.28,1.9,.41Z"/>
    <path class="cls-6" d="M44.2,17.19s0,0,0,0c0,0,0,0,0,0Z"/>
    <path class="cls-6" d="M9.54,12.03s.02-.03,.04-.05c-.01,.02-.02,.03-.04,.05Z"/>
    <path class="cls-7" d="M6.27,18.71s0-.03,.01-.04c0,.01,0,.03-.01,.04Z"/>
    <path class="cls-7" d="M19.8,24.63c-.02-.21-.04-.42-.04-.63s.02-.44,.04-.65c0-.06,.02-.13,.03-.19,.02-.15,.05-.3,.08-.45,.02-.07,.03-.13,.05-.2,.04-.15,.09-.29,.14-.44,.02-.05,.04-.11,.06-.16,.07-.17,.15-.34,.23-.51,0-.02,.02-.03,.02-.05,.21-.39,.46-.75,.74-1.09,0,0,0,0,0,0,.14-.16,.29-.32,.45-.46,0,0,.02-.01,.02-.02,.16-.15,.33-.28,.5-.41-.49-.07-.99-.12-1.48-.19-2.56-.36-5.11-.78-7.66-1.27-.32-.06-.63-.12-.95-.18s-.63-.12-.95-.19c-.63-.13-1.27-.27-1.9-.41-.25-.06-.51-.12-.76-.17-.56,1.36-.95,2.81-1.17,4.32,.41,.13,.83,.25,1.24,.37,3.76,1.08,7.52,2.06,11.29,2.98Z"/>
    <path class="cls-7" d="M45.41,23.95c0,.55-.03,1.08-.07,1.62,.04-.53,.07-1.07,.07-1.62Z"/>
    <path class="cls-7" d="M45.26,26.22c-.03,.3-.07,.6-.12,.9,.05-.3,.09-.6,.12-.9Z"/>
    <path class="cls-7" d="M45,27.93c-.04,.21-.09,.43-.14,.64,.05-.21,.1-.42,.14-.64Z"/>
    <path class="cls-7" d="M45.33,22.34c.04,.53,.08,1.07,.08,1.61,0-.54-.03-1.08-.08-1.61Z"/>
    <path class="cls-7" d="M35.96,20.68c-1.27-.08-2.55-.16-3.82-.25-.79-.06-1.59-.14-2.38-.21h0c.22,.25,.42,.51,.59,.8,0,.01,.01,.02,.02,.03,.17,.28,.31,.56,.43,.87,0,.02,.02,.05,.03,.07,.11,.3,.2,.61,.27,.93,0,.03,0,.05,.01,.08,.06,.33,.09,.66,.09,1.01,0,.25-.02,.5-.05,.74,0,.06-.02,.11-.03,.17-.03,.22-.08,.43-.14,.64,0,.02,0,.04-.01,.05-.15,.5-.36,.97-.63,1.4,0,0,0,0,0,0,2.02,.41,4.04,.81,6.05,1.16,2.24,.4,4.48,.76,6.72,1.09,.51-1.69,.79-3.47,.79-5.31,0-1.02-.1-2.01-.26-2.99-.02,0-.04,0-.06,0-2.54-.04-5.08-.14-7.62-.28Z"/>
    <path class="cls-3" d="M5.55,23.95c0-.56,.04-1.11,.08-1.65-.05,.54-.08,1.09-.08,1.65Z"/>
    <path class="cls-3" d="M44.61,29.5c-.11,.38-.23,.75-.36,1.12,.13-.37,.25-.74,.36-1.12Z"/>
    <path class="cls-3" d="M43.94,31.43c-.07,.17-.14,.34-.21,.51,.07-.17,.14-.34,.21-.51Z"/>
    <path class="cls-3" d="M5.62,25.53c-.04-.52-.07-1.04-.07-1.58,0,.53,.03,1.06,.07,1.58Z"/>
    <polygon class="cls-3" points="5.8 27.02 5.8 27.02 5.8 27.02 5.8 27.02"/>
    <path class="cls-3" d="M22,32.52c4.76,1.48,9.53,2.82,14.3,4.03,.71,.18,1.41,.35,2.11,.52,2.17-2.15,3.8-4.83,4.69-7.8-2.24-.33-4.48-.69-6.72-1.09-2.02-.36-4.03-.75-6.05-1.16,0,0,0,0,0,0-.37,.6-.85,1.12-1.41,1.55-.02,.02-.04,.03-.06,.05-.17,.13-.35,.24-.53,.35-.02,0-.03,.02-.05,.03-.2,.11-.41,.22-.63,.31-.01,0-.03,0-.04,.01-.19,.08-.38,.14-.58,.2-.06,.02-.12,.03-.18,.05-.16,.04-.33,.07-.49,.1-.07,.01-.13,.02-.2,.03-.23,.03-.45,.05-.69,.05-.35,0-.69-.04-1.02-.1-.03,0-.05,0-.08-.01-.32-.06-.62-.15-.91-.26-.04-.01-.08-.03-.11-.04-.29-.11-.56-.25-.82-.41-.04-.02-.08-.04-.11-.07-.26-.16-.5-.34-.72-.54-.03-.03-.06-.06-.09-.08-.22-.21-.43-.43-.62-.67-.02-.03-.04-.05-.06-.08-.19-.25-.36-.52-.51-.8,0-.02-.02-.03-.02-.05-.31-.6-.52-1.27-.59-1.97-3.77-.92-7.53-1.91-11.29-2.98-.41-.12-.83-.25-1.24-.37-.13,.88-.22,1.76-.22,2.67,0,1.25,.14,2.48,.38,3.67,.11,.04,.22,.08,.34,.12,4.73,1.72,9.47,3.31,14.24,4.77Z"/>
    <polygon class="cls-3" points="5.82 20.84 5.82 20.84 5.82 20.84 5.82 20.84"/>
    <path class="cls-3" d="M42.28,34.64c-.04,.06-.08,.13-.12,.19,.04-.06,.08-.13,.12-.19Z"/>
    <polygon class="cls-3" points="40.09 37.47 40.09 37.47 40.09 37.47 40.09 37.47"/>
    <path class="cls-4" d="M7.98,33.45c-.07-.12-.13-.25-.2-.37,.06,.12,.13,.25,.2,.37Z"/>
    <polygon class="cls-4" points="5.8 27.02 5.8 27.02 5.8 27.02 5.8 27.02"/>
    <path class="cls-4" d="M27.7,42.72c.31-.33,.67-.56,1.14-.65,3.74-.69,7.04-2.48,9.59-5.01-.7-.17-1.41-.34-2.11-.52-4.77-1.21-9.54-2.55-14.3-4.03-4.76-1.46-9.51-3.06-14.24-4.77-.11-.04-.22-.08-.34-.12,.67,3.32,2.24,6.33,4.46,8.76,1.1,.48,2.19,.97,3.3,1.43,4.16,1.75,8.33,3.39,12.51,4.91Z"/>
    <path class="cls-4" d="M6.03,28.22s-.02-.09-.03-.13c0,.04,.02,.09,.03,.13Z"/>
    <polygon class="cls-4" points="29.64 43.43 29.64 43.43 29.64 43.43 29.64 43.43"/>
    <path class="cls-4" d="M39.03,38.54s0,0-.01,0c0,0,0,0,.01,0Z"/>
    <polygon class="cls-4" points="40.09 37.47 40.09 37.47 40.09 37.47 40.09 37.47"/>
    <path class="cls-4" d="M6.62,30.34c-.03-.08-.05-.16-.08-.24,.03,.08,.05,.16,.08,.24Z"/>
    <path class="cls-9" d="M15.19,37.82c-1.1-.46-2.2-.95-3.3-1.43,2.63,2.88,6.17,4.94,10.23,5.69,1.36,.25,1.88,1.68,2.53,3.49,.2,.55,.51,1.43,.8,2,.29-.57,.6-1.43,.8-1.96,.45-1.21,.83-2.24,1.44-2.88-4.18-1.52-8.35-3.16-12.51-4.91Z"/>
    <path class="cls-9" d="M21.85,43.55s0,0,0,0c0,0,0,0,0,0,.29,.05,.56,.45,.81,1.02-.26-.57-.52-.97-.81-1.02Z"/>
    <path class="cls-9" d="M29.1,43.55c-.29,.05-.56,.45-.82,1.02,.26-.57,.53-.97,.82-1.02,.18-.03,.36-.09,.54-.12,0,0,0,0,0,0-.18,.04-.35,.09-.54,.12Z"/>
    <path class="cls-9" d="M16.47,41.71c-.18-.09-.36-.19-.53-.28,.18,.1,.35,.19,.53,.28Z"/>
    <path class="cls-9" d="M18.21,42.5c-.2-.08-.39-.16-.58-.25,.19,.08,.39,.17,.58,.25Z"/>
    <path class="cls-9" d="M14.78,40.75c-.14-.09-.28-.18-.42-.27,.14,.09,.28,.18,.42,.27Z"/>
    <path class="cls-9" d="M13.11,39.56c-.07-.06-.15-.11-.22-.17,.07,.06,.15,.11,.22,.17Z"/>
    <path class="cls-9" d="M20,43.11c-.19-.05-.37-.12-.55-.18,.18,.06,.36,.13,.55,.18Z"/>
    <path class="cls-8" d="M40.09,37.47c.76-.82,1.45-1.7,2.06-2.64,.04-.06,.08-.13,.12-.19,.55-.86,1.03-1.77,1.45-2.71,.07-.17,.14-.34,.21-.51,.11-.27,.22-.53,.31-.8,.13-.37,.25-.74,.36-1.12,.09-.31,.16-.62,.24-.94,.05-.21,.1-.42,.14-.64,.05-.27,.1-.54,.15-.81,.05-.3,.09-.59,.12-.9,.02-.21,.05-.43,.07-.64,.04-.53,.07-1.07,.07-1.62s-.04-1.08-.08-1.61c-.14-1.8-.53-3.52-1.12-5.15,0,0,0,0,0,0-.22-.61-.46-1.2-.74-1.77,0,0,0,0,0,0-.82-1.72-1.87-3.3-3.12-4.7-.03-.03-.05-.06-.08-.09-.54-.6-1.11-1.16-1.72-1.69-.01,0-.02-.02-.03-.03-.27-.24-.55-.46-.84-.69-.14-.11-.28-.21-.42-.31-.4-.3-.81-.58-1.24-.84-.24-.15-.47-.3-.72-.44-.23-.13-.47-.26-.7-.38-.31-.16-.63-.31-.95-.46-.21-.09-.42-.19-.63-.28-.44-.18-.89-.35-1.35-.5-.18-.06-.36-.11-.54-.17-.48-.14-.97-.27-1.47-.38-.06-.01-.13-.03-.19-.05-.56-.11-1.14-.2-1.72-.26-.15-.02-.3-.03-.45-.05-.6-.05-1.2-.09-1.81-.09-.65,0-1.28,.04-1.91,.1-.06,0-.12,0-.18,.01-.58,.06-1.15,.15-1.72,.26-.11,.02-.22,.04-.33,.06-.52,.11-1.02,.24-1.53,.39-.16,.05-.31,.09-.47,.14-.45,.15-.89,.31-1.33,.49-.2,.08-.4,.17-.61,.26-.38,.17-.76,.35-1.13,.54-.25,.13-.49,.27-.73,.41-.19,.11-.37,.22-.55,.33-.41,.26-.82,.53-1.21,.81-.08,.06-.16,.12-.24,.18-.48,.36-.95,.74-1.4,1.15-.03,.02-.05,.05-.08,.07-.92,.84-1.76,1.76-2.5,2.75-.01,.02-.02,.03-.04,.05-.34,.45-.65,.91-.95,1.39-.02,.03-.04,.07-.06,.1-.29,.47-.56,.95-.81,1.44-.02,.04-.04,.07-.05,.11-.57,1.14-1.03,2.34-1.37,3.59,0,.01,0,.03-.01,.04-.19,.7-.34,1.41-.45,2.13h0s0,0,0,0c-.08,.48-.14,.97-.18,1.46-.04,.55-.08,1.09-.08,1.65s.03,1.06,.07,1.58c.04,.5,.1,1,.18,1.49,0,0,0,0,0,0,0,0,0,0,0,0,.06,.36,.12,.72,.2,1.07,0,.04,.02,.09,.03,.13,.14,.64,.31,1.26,.51,1.88,.03,.08,.05,.16,.08,.24,.32,.95,.71,1.86,1.16,2.74,.06,.12,.13,.25,.2,.37,1.24,2.29,2.91,4.3,4.91,5.94,.07,.06,.15,.11,.22,.17,.4,.32,.82,.63,1.25,.92,.14,.09,.28,.18,.42,.27,.38,.24,.76,.47,1.15,.68,.18,.1,.35,.19,.53,.28,.38,.19,.76,.37,1.15,.54,.19,.08,.39,.17,.58,.25,.41,.16,.83,.3,1.25,.43,.18,.06,.36,.13,.55,.18,.6,.17,1.22,.32,1.84,.44,0,0,0,0,0,0,.29,.05,.56,.45,.81,1.02,.77,1.7,1.47,4.93,2.81,4.93s2.02-3.23,2.8-4.93c.26-.57,.53-.97,.82-1.02,.18-.03,.36-.09,.54-.12,0,0,0,0,0,0,3.58-.76,6.79-2.48,9.37-4.88,0,0,0,0,.01,0,.37-.34,.72-.7,1.06-1.06,0,0,0,0,0,0,0,0,0,0,0,0Zm-13.83,8.14c-.2,.54-.51,1.39-.8,1.96-.29-.58-.61-1.45-.8-2-.65-1.81-1.17-3.24-2.53-3.49-4.07-.75-7.6-2.81-10.23-5.69-2.22-2.43-3.79-5.44-4.46-8.76-.24-1.19-.38-2.42-.38-3.67,0-.91,.09-1.8,.22-2.67,.22-1.5,.61-2.95,1.17-4.32,.93-2.25,2.28-4.27,3.96-5.97,3.34-3.37,7.97-5.46,13.08-5.46,6.37,0,12,3.25,15.31,8.18,1.44,2.14,2.42,4.61,2.85,7.26,.16,.97,.26,1.97,.26,2.99,0,1.84-.29,3.62-.79,5.31-.9,2.98-2.52,5.66-4.69,7.8-2.55,2.52-5.85,4.32-9.59,5.01-.46,.09-.83,.32-1.14,.65-.6,.64-.99,1.67-1.44,2.88Z"/>
    <path class="cls-8" d="M30.97,25.61s0-.04,.01-.05c.06-.21,.1-.42,.14-.64,0-.06,.02-.11,.03-.17,.03-.24,.05-.49,.05-.74,0-.34-.04-.68-.09-1.01,0-.03,0-.05-.01-.08-.06-.32-.15-.63-.27-.93,0-.02-.02-.05-.03-.07-.12-.3-.26-.59-.43-.87,0-.01-.01-.02-.02-.03-.17-.28-.37-.55-.59-.8h0c-.13-.15-.26-.28-.41-.42,0,0-.01-.01-.02-.02-.13-.12-.27-.24-.42-.35-.02-.01-.03-.02-.05-.04-.14-.1-.28-.19-.42-.28-.03-.02-.05-.03-.08-.05-.14-.08-.28-.15-.42-.22-.04-.02-.08-.04-.12-.06-.13-.06-.27-.11-.41-.16-.05-.02-.1-.04-.15-.05-.13-.04-.27-.08-.41-.11-.06-.01-.11-.03-.17-.04-.14-.03-.29-.05-.43-.07-.06,0-.11-.02-.17-.03-.2-.02-.4-.03-.61-.03-.28,0-.56,.03-.83,.07-.05,0-.1,.01-.15,.02-.27,.05-.54,.11-.79,.2,0,0-.02,0-.03,.01-.27,.09-.54,.2-.79,.33,0,0,0,0,0,0-.26,.13-.51,.29-.74,.46-.18,.13-.34,.26-.5,.41,0,0-.02,.01-.02,.02-.16,.15-.31,.3-.45,.46,0,0,0,0,0,0-.29,.33-.54,.69-.74,1.09,0,.02-.02,.03-.02,.05-.08,.17-.16,.34-.23,.51-.02,.05-.04,.11-.06,.16-.05,.14-.1,.29-.14,.44-.02,.07-.04,.13-.05,.2-.03,.15-.06,.3-.08,.45,0,.06-.02,.13-.03,.19-.02,.21-.04,.43-.04,.65s.01,.42,.04,.63c.08,.7,.28,1.37,.59,1.97,0,.02,.02,.03,.02,.05,.15,.28,.32,.55,.51,.8,.02,.03,.04,.05,.06,.08,.19,.24,.4,.46,.62,.67,.03,.03,.06,.06,.09,.08,.23,.2,.47,.38,.72,.54,.04,.02,.07,.05,.11,.07,.26,.16,.53,.3,.82,.41,.04,.01,.08,.03,.11,.04,.29,.11,.6,.2,.91,.26,.03,0,.05,0,.08,.01,.33,.06,.67,.1,1.02,.1,.23,0,.46-.02,.69-.05,.07,0,.13-.02,.2-.03,.17-.03,.33-.06,.49-.1,.06-.02,.12-.03,.18-.05,.2-.06,.39-.12,.58-.2,.01,0,.03,0,.04-.01,.22-.09,.42-.19,.63-.31,.02,0,.03-.02,.05-.03,.18-.11,.36-.22,.53-.35,.02-.02,.04-.03,.06-.05,.56-.42,1.04-.95,1.41-1.55,0,0,0,0,0,0,.27-.43,.48-.9,.63-1.4Zm-10.2-1.6c0-2.6,2.12-4.72,4.72-4.72s4.72,2.12,4.72,4.72-2.12,4.72-4.72,4.72-4.72-2.12-4.72-4.72Z"/>
  </g>
</svg>