<?xml version="1.0" encoding="UTF-8"?>
<svg id="Layer_1" data-name="Layer 1" xmlns="http://www.w3.org/2000/svg" viewBox="0 0 50.96 50.96">
  <defs>
    <style>
      .cls-1 {
        fill: none;
      }

      .cls-2 {
        fill: #f7a61d;
      }

      .cls-3 {
        fill: #fff;
      }

      .cls-4 {
        fill: #65aa72;
      }

      .cls-5 {
        fill: #2f75a6;
      }

      .cls-6 {
        fill: #c24747;
      }

      .cls-7 {
        fill: #d67f48;
      }

      .cls-8 {
        fill: #dbd175;
      }

      .cls-9 {
        fill: #620043;
      }

      .cls-10 {
        fill: #795ea0;
      }
    </style>
  </defs>
  <path class="cls-3" d="M49.97,24.7c-.29-1.43-1.28-2.64-2.61-3.23-.34-.77-.83-1.48-1.45-2.09-.18-.79-.43-1.62-.76-2.54-.23-.64-.49-1.26-.78-1.86-.86-1.8-1.96-3.46-3.28-4.94l-.05-.06c-.61-.67-1.21-1.27-1.83-1.81-.32-.28-.62-.52-.92-.75-.14-.11-.27-.21-.41-.31-.45-.33-.89-.63-1.33-.9l-.05-.03c-.23-.14-.46-.29-.7-.42-.24-.14-.49-.27-.74-.4-.33-.17-.66-.33-.99-.48l-.12-.06c-.18-.08-.36-.16-.54-.24-.45-.19-.93-.36-1.42-.52-.19-.06-.38-.12-.57-.18-.56-.16-1.06-.29-1.55-.4h-.05s-.1-.04-.15-.05c-.54-.11-1.13-.2-1.81-.28-.16-.02-.32-.03-.47-.05-.72-.07-1.33-.1-1.9-.1-.64,0-1.29,.03-2.01,.1h-.06s-.13,.02-.13,.02c-.56,.06-1.15,.15-1.8,.28l-.11,.02c-.08,.01-.16,.03-.24,.05-.5,.11-1.02,.24-1.6,.41-.17,.05-.33,.1-.49,.15-.45,.15-.91,.31-1.4,.51-.21,.09-.43,.18-.64,.27-.4,.18-.8,.37-1.18,.57-.26,.14-.51,.28-.77,.43-.18,.1-.35,.21-.52,.32l-.05,.03c-.44,.27-.87,.56-1.27,.85l-.19,.14-.07,.05c-.51,.38-1,.78-1.46,1.21l-.08,.07c-.96,.88-1.85,1.85-2.63,2.89h0s-.04,.05-.04,.05c-.36,.48-.69,.97-1,1.46l-.04,.07c-.34,.56-.62,1.05-.88,1.55l-.04,.08c-.62,1.24-1.1,2.51-1.46,3.81-.21,.76-.37,1.51-.49,2.28-.06,.41-.14,.96-.19,1.53-.05,.55-.09,1.14-.09,1.73,0,.49,.02,1.01,.07,1.65,.04,.46,.09,.95,.18,1.53h0s0,.06,0,.06c.05,.36,.12,.73,.2,1.1l.02,.09c.16,.71,.34,1.37,.55,2.02l.03,.08,.05,.17c.33,.98,.74,1.95,1.22,2.88,.07,.13,.14,.26,.21,.39,1.31,2.41,3.05,4.51,5.16,6.23,.05,.04,.1,.08,.15,.12l.08,.06c.44,.35,.88,.67,1.31,.96,.12,.08,.24,.16,.37,.24l.07,.05c.4,.26,.81,.5,1.22,.72,.18,.1,.37,.2,.56,.3,.37,.19,.77,.37,1.21,.56l.15,.07c.15,.07,.3,.13,.46,.19,.38,.15,.78,.29,1.31,.46l.19,.06c.13,.04,.25,.09,.38,.12,.62,.18,1.2,.32,1.77,.43,.05,.07,.14,.21,.25,.48,.1,.22,.21,.5,.35,.89l.2,.54,.19,.54c.19,.52,.42,1.13,.69,1.66,.23,.47,.95,1.89,2.29,1.89s2-1.37,2.25-1.89c.26-.53,.5-1.13,.69-1.65l.18-.49c.07-.2,.15-.4,.22-.59,.15-.39,.26-.67,.36-.89,.13-.28,.22-.42,.27-.49,.07-.01,.13-.03,.2-.05,.06-.02,.13-.03,.19-.05,3.68-.78,7.08-2.55,9.85-5.12,.75-.7,1.45-1.45,2.09-2.24,2.78-.15,4.82-1.49,6.07-2.62,.94-.85,1.6-1.95,1.93-3.17,.36-1.37,.52-2.78,.47-4.19-.03-.79-.12-1.59-.28-2.36Zm-20.77-.7c0,2.05-1.67,3.72-3.72,3.72s-3.72-1.67-3.72-3.72,1.67-3.72,3.72-3.72,3.72,1.67,3.72,3.72Z"/>
  <g>
    <path class="cls-1" d="M28.33,28.95s-.03,.02-.05,.03c.02,0,.03-.02,.05-.03Z"/>
    <path class="cls-1" d="M28.93,28.56s-.04,.03-.06,.05c.02-.02,.04-.03,.06-.05Z"/>
    <path class="cls-1" d="M27.66,29.29s-.03,0-.04,.01c.01,0,.03,0,.04-.01Z"/>
    <polygon class="cls-1" points="30.34 27.01 30.34 27.01 30.34 27.01 30.34 27.01"/>
    <path class="cls-1" d="M31.09,22.92s0,.05,.01,.08c0-.03,0-.05-.01-.08Z"/>
    <path class="cls-1" d="M31.14,24.74c0,.06-.02,.11-.03,.17,0-.06,.02-.11,.03-.17Z"/>
    <path class="cls-1" d="M27.04,29.5c-.06,.02-.12,.03-.18,.05,.06-.02,.12-.03,.18-.05Z"/>
    <path class="cls-1" d="M30.98,25.55s0,.04-.01,.05c0-.02,0-.04,.01-.05Z"/>
    <path class="cls-1" d="M22.54,28.9s-.08-.04-.11-.07c.04,.02,.07,.05,.11,.07Z"/>
    <path class="cls-1" d="M21.7,28.29s-.06-.06-.09-.08c.03,.03,.06,.06,.09,.08Z"/>
    <path class="cls-1" d="M20.99,27.53s-.04-.05-.06-.08c.02,.03,.04,.05,.06,.08Z"/>
    <path class="cls-1" d="M24.46,29.62s-.05,0-.08-.01c.03,0,.05,0,.08,.01Z"/>
    <path class="cls-1" d="M23.47,29.35s-.08-.03-.11-.04c.04,.01,.08,.03,.11,.04Z"/>
    <path class="cls-1" d="M26.36,29.65c-.07,.01-.13,.02-.2,.03,.07,0,.13-.02,.2-.03Z"/>
    <path class="cls-1" d="M24.5,18.38c.05,0,.1-.02,.15-.02-.05,0-.1,.01-.15,.02Z"/>
    <path class="cls-1" d="M30.8,21.92s.02,.05,.03,.07c0-.02-.02-.05-.03-.07Z"/>
    <path class="cls-1" d="M26.69,18.42c.06,.01,.11,.03,.17,.04-.06-.01-.11-.03-.17-.04Z"/>
    <path class="cls-1" d="M26.09,18.32c.06,0,.11,.02,.17,.03-.06,0-.11-.02-.17-.03Z"/>
    <path class="cls-1" d="M22.88,18.92s0,0,0,0c0,0,0,0,0,0Z"/>
    <path class="cls-1" d="M20.41,26.65s-.02-.03-.02-.05c0,.02,.02,.03,.02,.05Z"/>
    <path class="cls-1" d="M23.67,18.58s.02,0,.03-.01c-.01,0-.02,0-.03,.01Z"/>
    <polygon class="cls-1" points="29.76 20.22 29.76 20.22 29.76 20.22 29.76 20.22"/>
    <path class="cls-1" d="M30.35,21.02s.01,.02,.02,.03c0-.01-.01-.02-.02-.03Z"/>
    <path class="cls-1" d="M29.33,19.79s.01,.01,.02,.02c0,0-.01-.01-.02-.02Z"/>
    <path class="cls-1" d="M27.27,18.57c.05,.02,.1,.04,.15,.05-.05-.02-.1-.04-.15-.05Z"/>
    <path class="cls-1" d="M28.36,19.07s.06,.03,.08,.05c-.03-.02-.06-.03-.08-.05Z"/>
    <path class="cls-1" d="M27.82,18.79s.08,.04,.12,.06c-.04-.02-.08-.04-.12-.06Z"/>
    <path class="cls-1" d="M28.86,19.4s.03,.03,.05,.04c-.02-.01-.03-.03-.05-.04Z"/>
    <path class="cls-1" d="M21.61,19.8s.02-.01,.02-.02c0,0-.02,.01-.02,.02Z"/>
    <circle class="cls-1" cx="25.48" cy="24" r="4.72" transform="translate(-3.52 4.39) rotate(-9.22)"/>
    <path class="cls-1" d="M21.16,20.26s0,0,0,0c0,0,0,0,0,0Z"/>
    <path class="cls-1" d="M19.8,23.35c0-.06,.02-.13,.03-.19,0,.06-.02,.13-.03,.19Z"/>
    <path class="cls-1" d="M20.39,21.4s.02-.03,.02-.05c0,.02-.02,.03-.02,.05Z"/>
    <path class="cls-1" d="M20.1,22.07c.02-.05,.04-.11,.06-.16-.02,.05-.04,.11-.06,.16Z"/>
    <path class="cls-1" d="M19.91,22.71c.02-.07,.03-.13,.05-.2-.02,.07-.04,.13-.05,.2Z"/>
    <path class="cls-6" d="M23.57,4.12c.63-.06,1.27-.1,1.91-.1-.65,0-1.28,.04-1.91,.1Z"/>
    <path class="cls-6" d="M19.81,4.85c.5-.15,1.01-.28,1.53-.39-.52,.11-1.02,.24-1.53,.39Z"/>
    <path class="cls-6" d="M31.66,5.01c.46,.15,.91,.31,1.35,.5-.44-.18-.89-.35-1.35-.5Z"/>
    <path class="cls-6" d="M27.74,4.16c.58,.07,1.16,.15,1.72,.26-.56-.11-1.14-.2-1.72-.26Z"/>
    <path class="cls-6" d="M29.65,4.47c.5,.11,.99,.24,1.47,.38-.48-.14-.97-.27-1.47-.38Z"/>
    <path class="cls-6" d="M21.67,4.4c.57-.11,1.14-.2,1.72-.26-.58,.06-1.15,.15-1.72,.26Z"/>
    <path class="cls-6" d="M18.01,5.48c.44-.18,.88-.34,1.33-.49-.45,.15-.89,.31-1.33,.49Z"/>
    <path class="cls-6" d="M12.08,9.24s.05-.05,.08-.07c-.03,.02-.05,.05-.08,.07Z"/>
    <path class="cls-6" d="M13.55,8.02c.08-.06,.16-.12,.24-.18-.08,.06-.16,.12-.24,.18Z"/>
    <path class="cls-6" d="M16.28,6.28c.37-.19,.74-.37,1.13-.54-.38,.17-.76,.35-1.13,.54Z"/>
    <path class="cls-6" d="M15,7.03c.18-.11,.36-.23,.55-.33-.19,.11-.37,.22-.55,.33Z"/>
    <path class="cls-6" d="M25.48,4.02c.61,0,1.21,.04,1.81,.09-.6-.05-1.2-.09-1.81-.09Z"/>
    <path class="cls-6" d="M33.65,5.79c.32,.14,.64,.3,.95,.46-.31-.16-.63-.31-.95-.46Z"/>
    <path class="cls-6" d="M38.51,8.9s.02,.02,.03,.03c-.01,0-.02-.02-.03-.03Z"/>
    <path class="cls-6" d="M14.06,11.3l1.66,.29,.83,.14,.83,.13,1.65,.25c.55,.08,1.11,.15,1.66,.22l.83,.11c.27,.03,.55,.06,.82,.09l1.65,.19,.21,.03,.2,.02,.41,.04,.83,.09c.55,.06,1.1,.12,1.65,.17l1.65,.15c.28,.03,.55,.04,.82,.07l.82,.06,.82,.06,.41,.03,.41,.03,1.64,.09,.41,.03h.41s.82,.05,.82,.05l.82,.03h.41s.41,.02,.41,.02c1.21,.03,2.43,.03,3.64,.03-3.31-4.93-8.94-8.18-15.31-8.18-5.11,0-9.74,2.09-13.08,5.46h0s1.66,.31,1.66,.31Z"/>
    <path class="cls-6" d="M40.26,10.62s.05,.06,.08,.09c-.03-.03-.05-.06-.08-.09Z"/>
    <path class="cls-6" d="M35.3,6.62c.24,.14,.48,.29,.72,.44-.24-.15-.47-.3-.72-.44Z"/>
    <path class="cls-6" d="M37.25,7.9c.14,.1,.28,.21,.42,.31-.14-.11-.28-.21-.42-.31Z"/>
    <path class="cls-7" d="M9.54,12.03s.02-.03,.04-.05c-.01,.02-.02,.03-.04,.05Z"/>
    <path class="cls-7" d="M43.46,15.41s0,0,0,0c0,0,0,0,0,0Z"/>
    <path class="cls-7" d="M44.2,17.19s0,0,0,0c0,0,0,0,0,0Z"/>
    <path class="cls-7" d="M37.15,13.67h-.41s-.41-.02-.41-.02l-.82-.03-.82-.03h-.41s-.41-.04-.41-.04l-1.64-.09-.41-.03-.41-.03-.82-.06-.82-.06c-.27-.02-.55-.04-.82-.07l-1.65-.15c-.55-.05-1.1-.11-1.65-.17l-.83-.09-.41-.04-.2-.02-.21-.03-1.65-.19c-.27-.03-.55-.06-.82-.09l-.83-.11c-.55-.07-1.1-.14-1.66-.22l-1.65-.25-.83-.13-.83-.14-1.66-.29-1.66-.31h0c-1.69,1.7-3.04,3.73-3.96,5.97,.25,.06,.51,.12,.76,.17,.63,.14,1.27,.28,1.9,.41,.32,.07,.63,.13,.95,.19s.63,.12,.95,.18c2.55,.48,5.1,.91,7.66,1.27,.49,.07,.99,.13,1.48,.19,.23-.17,.48-.32,.74-.45,0,0,0,0,0,0,.25-.13,.51-.24,.79-.33,.01,0,.02,0,.03-.01,.26-.08,.52-.15,.79-.19,.05,0,.1-.02,.15-.02,.27-.04,.55-.07,.83-.07,.21,0,.41,.01,.61,.03,.06,0,.11,.02,.17,.03,.14,.02,.29,.04,.43,.07,.06,.01,.11,.03,.17,.04,.14,.03,.27,.07,.41,.11,.05,.02,.1,.04,.15,.05,.14,.05,.28,.1,.41,.16,.04,.02,.08,.04,.12,.06,.14,.07,.28,.14,.42,.22,.03,.02,.06,.03,.08,.05,.14,.09,.29,.18,.42,.28,.02,.01,.03,.03,.05,.04,.15,.11,.29,.23,.42,.35,0,0,.01,.01,.02,.02,.14,.13,.28,.27,.41,.41h0c.79,.07,1.59,.15,2.38,.21,1.27,.1,2.55,.18,3.82,.25,.3,.02,.59,.03,.89,.04,1.03-1.37,2.66-2.24,4.46-2.24,.65,0,1.27,.12,1.85,.33-.53-1.83-1.33-3.55-2.38-5.1-1.21,0-2.42,0-3.64-.03Z"/>
    <path class="cls-7" d="M8.52,13.53s.04-.07,.06-.1c-.02,.03-.04,.07-.06,.1Z"/>
    <path class="cls-7" d="M7.65,15.08s.04-.07,.05-.11c-.02,.04-.04,.07-.05,.11Z"/>
    <path class="cls-8" d="M6.27,18.71s0-.03,.01-.04c0,.01,0,.03-.01,.04Z"/>
    <path class="cls-8" d="M19.8,24.63c-.02-.21-.04-.42-.04-.63s.02-.44,.04-.65c0-.06,.02-.13,.03-.19,.02-.15,.05-.3,.08-.45,.02-.07,.03-.13,.05-.2,.04-.15,.09-.29,.14-.44,.02-.05,.04-.11,.06-.16,.07-.17,.15-.34,.23-.51,0-.02,.02-.03,.02-.05,.21-.39,.46-.75,.74-1.09,0,0,0,0,0,0,.14-.16,.29-.32,.45-.46,0,0,.02-.01,.02-.02,.16-.15,.33-.28,.5-.41-.49-.07-.99-.12-1.48-.19-2.56-.36-5.11-.78-7.66-1.27-.32-.06-.63-.12-.95-.18s-.63-.12-.95-.19c-.63-.13-1.27-.27-1.9-.41-.25-.06-.51-.12-.76-.17-.56,1.36-.95,2.81-1.17,4.32,.41,.13,.83,.25,1.24,.37,3.76,1.08,7.52,2.06,11.29,2.98Z"/>
    <path class="cls-8" d="M38.31,22.96c.13-.35,.32-.67,.55-.95-.24,.28-.42,.6-.55,.95Z"/>
    <path class="cls-8" d="M32.14,20.43c-.79-.06-1.59-.14-2.38-.21h0c.22,.25,.42,.51,.59,.8,0,.01,.01,.02,.02,.03,.17,.28,.31,.56,.43,.87,0,.02,.02,.05,.03,.07,.11,.3,.2,.61,.27,.93,0,.03,0,.05,.01,.08,.06,.33,.09,.66,.09,1.01,0,.25-.02,.5-.05,.74,0,.06-.02,.11-.03,.17-.03,.22-.08,.43-.14,.64,0,.02,0,.04-.01,.05-.15,.5-.36,.97-.63,1.4,0,0,0,0,0,0,1.01,.21,2.02,.39,3.03,.58,0-.16,0-.32,0-.48,.02-.69,.09-1.38,.21-2.06,.24-1.36,1.21-2.42,2.46-2.81,.19-.55,.47-1.06,.81-1.51-.3-.02-.59-.02-.89-.04-1.27-.08-2.55-.16-3.82-.25Z"/>
    <path class="cls-8" d="M41.31,21.62c-.86,0-1.63,.44-2.07,1.13h4.13c-.44-.69-1.21-1.13-2.07-1.13Z"/>
    <path class="cls-8" d="M38.31,22.96c-.07,.17-.12,.36-.15,.54h0c.03-.19,.08-.37,.15-.54Z"/>
    <path class="cls-4" d="M5.55,23.95c0-.56,.04-1.11,.08-1.65-.05,.54-.08,1.09-.08,1.65Z"/>
    <polygon class="cls-4" points="5.8 27.02 5.8 27.02 5.8 27.02 5.8 27.02"/>
    <polygon class="cls-4" points="5.82 20.84 5.82 20.84 5.82 20.84 5.82 20.84"/>
    <path class="cls-4" d="M30.34,27.01c-.37,.6-.85,1.12-1.41,1.55-.02,.02-.04,.03-.06,.05-.17,.13-.35,.24-.53,.35-.02,0-.03,.02-.05,.03-.2,.11-.41,.22-.63,.31-.01,0-.03,0-.04,.01-.19,.08-.38,.14-.58,.2-.06,.02-.12,.03-.18,.05-.16,.04-.33,.07-.49,.1-.07,.01-.13,.02-.2,.03-.23,.03-.45,.05-.69,.05-.35,0-.69-.04-1.02-.1-.03,0-.05,0-.08-.01-.32-.06-.62-.15-.91-.26-.04-.01-.08-.03-.11-.04-.29-.11-.56-.25-.82-.41-.04-.02-.08-.04-.11-.07-.26-.16-.5-.34-.72-.54-.03-.03-.06-.06-.09-.08-.22-.21-.43-.43-.62-.67-.02-.03-.04-.05-.06-.08-.19-.25-.36-.52-.51-.8,0-.02-.02-.03-.02-.05-.31-.6-.52-1.27-.59-1.97-3.77-.92-7.53-1.91-11.29-2.98-.41-.12-.83-.25-1.24-.37-.13,.88-.22,1.76-.22,2.67,0,1.25,.14,2.48,.38,3.67,.11,.04,.22,.08,.34,.12,4.73,1.72,9.47,3.31,14.24,4.77,4.76,1.48,9.53,2.82,14.3,4.03,.71,.18,1.41,.35,2.11,.52,.39-.38,.76-.78,1.11-1.2-1.87-.39-3.27-1.34-4.17-2.16-.81-.74-1.37-1.71-1.63-2.81-.25-1.09-.37-2.2-.37-3.31-1.01-.2-2.02-.38-3.03-.58,0,0,0,0,0,0Z"/>
    <path class="cls-4" d="M5.62,25.53c-.04-.52-.07-1.04-.07-1.58,0,.53,.03,1.06,.07,1.58Z"/>
    <path class="cls-5" d="M7.97,33.45c-.07-.12-.13-.25-.2-.37,.06,.12,.13,.25,.2,.37Z"/>
    <path class="cls-5" d="M39.03,38.54s0,0,0,0c0,0,0,0,0,0Z"/>
    <path class="cls-5" d="M6.03,28.22s-.02-.09-.03-.13c0,.04,.02,.09,.03,.13Z"/>
    <path class="cls-5" d="M6.62,30.34c-.03-.08-.05-.16-.08-.24,.03,.08,.05,.16,.08,.24Z"/>
    <polygon class="cls-5" points="5.8 27.02 5.8 27.02 5.8 27.02 5.8 27.02"/>
    <path class="cls-5" d="M22,32.52c-4.76-1.46-9.51-3.06-14.24-4.77-.11-.04-.22-.08-.34-.12,.67,3.32,2.24,6.33,4.46,8.76,1.1,.48,2.19,.97,3.3,1.43,4.16,1.75,8.33,3.39,12.51,4.91,.31-.33,.67-.56,1.14-.65,3.74-.69,7.04-2.48,9.59-5.01-.7-.17-1.41-.34-2.11-.52-4.77-1.21-9.54-2.55-14.3-4.03Z"/>
    <path class="cls-10" d="M27.89,45.53c-.13,.35-.26,.71-.4,1.08,.14-.37,.27-.73,.4-1.08Z"/>
    <path class="cls-10" d="M28.28,44.57c-.13,.28-.26,.61-.39,.96,.13-.35,.26-.67,.39-.96Z"/>
    <path class="cls-10" d="M29.1,43.55c.18-.03,.36-.09,.54-.12h0c-.18,.04-.35,.09-.54,.12Z"/>
    <path class="cls-10" d="M13.11,39.56c-.07-.06-.15-.11-.22-.17,.07,.06,.15,.11,.22,.17Z"/>
    <path class="cls-10" d="M14.78,40.75c-.14-.09-.28-.18-.42-.27,.14,.09,.28,.18,.42,.27Z"/>
    <path class="cls-10" d="M16.47,41.71c-.18-.09-.35-.19-.53-.28,.18,.1,.35,.19,.53,.28Z"/>
    <path class="cls-10" d="M11.89,36.39c2.63,2.88,6.17,4.94,10.23,5.69,1.36,.25,1.88,1.68,2.53,3.49,.2,.55,.51,1.43,.8,2,.29-.57,.6-1.43,.8-1.96,.45-1.21,.83-2.24,1.44-2.88-4.18-1.52-8.35-3.16-12.51-4.91-1.1-.46-2.2-.95-3.3-1.43Z"/>
    <path class="cls-10" d="M20,43.11c-.18-.05-.36-.12-.55-.18,.18,.06,.36,.12,.55,.18Z"/>
    <path class="cls-10" d="M18.21,42.5c-.2-.08-.39-.16-.58-.25,.19,.08,.39,.17,.58,.25Z"/>
    <path class="cls-10" d="M23.05,45.53c-.13-.35-.25-.67-.38-.96,.13,.28,.25,.61,.38,.96Z"/>
    <path class="cls-10" d="M23.44,46.61c-.13-.37-.26-.73-.39-1.08,.13,.35,.26,.71,.39,1.08Z"/>
    <path class="cls-10" d="M27.49,46.61c-.2,.55-.42,1.09-.65,1.56,.23-.47,.45-1.01,.65-1.56Z"/>
    <path class="cls-10" d="M24.08,48.17c-.23-.47-.45-1.01-.65-1.56,.2,.55,.41,1.09,.65,1.56Z"/>
    <path class="cls-9" d="M21.61,19.8c-.16,.15-.31,.3-.45,.46,0,0,0,0,0,0-.29,.33-.54,.69-.74,1.09,0,.02-.02,.03-.02,.05-.08,.17-.16,.34-.23,.51-.02,.05-.04,.11-.06,.16-.05,.14-.1,.29-.14,.44-.02,.07-.04,.13-.05,.2-.03,.15-.06,.3-.08,.45,0,.06-.02,.13-.03,.19-.02,.21-.04,.43-.04,.65s.01,.42,.04,.63c.08,.7,.28,1.37,.59,1.97,0,.02,.02,.03,.02,.05,.15,.28,.32,.55,.51,.8,.02,.03,.04,.05,.06,.08,.19,.24,.4,.46,.62,.67,.03,.03,.06,.06,.09,.08,.23,.2,.47,.38,.72,.54,.04,.02,.07,.05,.11,.07,.26,.16,.53,.3,.82,.41,.04,.01,.08,.03,.11,.04,.29,.11,.6,.2,.91,.26,.03,0,.05,0,.08,.01,.33,.06,.67,.1,1.02,.1,.23,0,.46-.02,.69-.05,.07,0,.13-.02,.2-.03,.17-.03,.33-.06,.49-.1,.06-.02,.12-.03,.18-.05,.2-.06,.39-.12,.58-.2,.01,0,.03,0,.04-.01,.22-.09,.42-.19,.63-.31,.02,0,.03-.02,.05-.03,.18-.11,.36-.22,.53-.35,.02-.02,.04-.03,.06-.05,.56-.42,1.04-.95,1.41-1.55,0,0,0,0,0,0,.27-.43,.48-.9,.63-1.4,0-.02,0-.04,.01-.05,.06-.21,.1-.42,.14-.64,0-.06,.02-.11,.03-.17,.03-.24,.05-.49,.05-.74,0-.34-.04-.68-.09-1.01,0-.03,0-.05-.01-.08-.06-.32-.15-.63-.27-.93,0-.02-.02-.05-.03-.07-.12-.3-.26-.59-.43-.87,0-.01-.01-.02-.02-.03-.17-.28-.37-.55-.59-.8h0c-.13-.15-.26-.28-.41-.41,0,0-.01-.01-.02-.02-.13-.12-.27-.24-.42-.35-.02-.01-.03-.03-.05-.04-.14-.1-.28-.19-.42-.28-.03-.02-.06-.03-.08-.05-.14-.08-.27-.15-.42-.22-.04-.02-.08-.04-.12-.06-.13-.06-.27-.11-.41-.16-.05-.02-.1-.04-.15-.05-.13-.04-.27-.08-.41-.11-.06-.01-.11-.03-.17-.04-.14-.03-.28-.05-.43-.07-.06,0-.11-.02-.17-.03-.2-.02-.4-.03-.61-.03-.28,0-.56,.03-.83,.07-.05,0-.1,.01-.15,.02-.27,.05-.54,.11-.79,.19-.01,0-.02,0-.03,.01-.27,.09-.53,.2-.79,.33,0,0,0,0,0,0-.26,.13-.51,.29-.74,.45-.18,.13-.34,.26-.5,.41,0,0-.02,.01-.02,.02Zm8.59,4.2c0,2.6-2.12,4.72-4.72,4.72s-4.72-2.12-4.72-4.72,2.12-4.72,4.72-4.72,4.72,2.12,4.72,4.72Z"/>
    <path class="cls-2" d="M45.48,23.5h-.06c-.29-2.03-2.01-3.59-4.11-3.59s-3.83,1.56-4.11,3.59h-.08c-1.05,0-1.94,.76-2.12,1.79-.1,.56-.17,1.19-.19,1.86-.04,1.33,.12,2.49,.33,3.42,.18,.8,.59,1.52,1.2,2.07,.91,.83,2.48,1.89,4.66,1.97,.09,0,.18,0,.27,0,2.31,0,4.01-1.14,4.96-2,.59-.53,1-1.22,1.21-1.99,.24-.92,.44-2.1,.39-3.48-.03-.72-.12-1.38-.24-1.96-.2-.99-1.09-1.69-2.1-1.69Zm-7.18-.54c.13-.35,.32-.67,.55-.95,.59-.7,1.47-1.14,2.45-1.14,1.57,0,2.88,1.13,3.15,2.63h-6.31c.03-.19,.08-.37,.15-.54Zm3.2,9.07c-.48,0-.87-.12-1.14-.23-.17-.07-.26-.25-.23-.43l.45-2.5c-.4-.3-.66-.77-.66-1.3,0-.9,.73-1.62,1.62-1.62s1.62,.73,1.62,1.62c0,.54-.26,1.01-.66,1.3l.45,2.5c.03,.18-.06,.36-.23,.43-.29,.12-.7,.24-1.21,.23Z"/>
    <path class="cls-9" d="M48.99,24.91c-.26-1.27-1.2-2.27-2.4-2.66-.32-.92-.88-1.72-1.59-2.34-.19-.93-.47-1.83-.79-2.71,0,0,0,0,0,0-.22-.61-.46-1.2-.74-1.77,0,0,0,0,0,0-.82-1.72-1.87-3.3-3.12-4.7-.03-.03-.05-.06-.08-.09-.54-.6-1.11-1.16-1.72-1.69-.01,0-.02-.02-.03-.03-.27-.24-.55-.46-.84-.69-.14-.11-.28-.21-.42-.31-.4-.3-.81-.58-1.24-.84-.24-.15-.47-.3-.72-.44-.23-.13-.47-.26-.7-.38-.31-.16-.63-.31-.95-.46-.21-.09-.42-.19-.63-.28-.44-.18-.89-.35-1.35-.5-.18-.06-.36-.11-.54-.17-.48-.14-.97-.27-1.47-.38-.06-.01-.13-.03-.19-.05-.56-.11-1.14-.2-1.72-.26-.15-.02-.3-.03-.45-.05-.6-.05-1.2-.09-1.81-.09-.65,0-1.28,.04-1.91,.1-.06,0-.12,0-.18,.01-.58,.06-1.15,.15-1.72,.26-.11,.02-.22,.04-.33,.06-.52,.11-1.02,.24-1.53,.39-.16,.05-.31,.09-.47,.14-.45,.15-.89,.31-1.33,.49-.2,.08-.4,.17-.61,.26-.38,.17-.76,.35-1.13,.54-.25,.13-.49,.27-.73,.41-.19,.11-.37,.22-.55,.33-.41,.26-.82,.53-1.21,.81-.08,.06-.16,.12-.24,.18-.48,.36-.95,.74-1.4,1.15-.03,.02-.05,.05-.08,.07-.92,.84-1.76,1.76-2.5,2.75-.01,.02-.02,.03-.04,.05-.34,.45-.65,.91-.95,1.39-.02,.03-.04,.07-.06,.1-.29,.47-.56,.95-.81,1.44-.02,.04-.04,.07-.05,.11-.57,1.14-1.03,2.34-1.37,3.59,0,.01,0,.03-.01,.04-.19,.7-.34,1.41-.45,2.13h0s0,0,0,0c-.08,.48-.14,.97-.18,1.46-.04,.55-.08,1.09-.08,1.65s.03,1.06,.07,1.58c.04,.5,.1,1,.18,1.49,0,0,0,0,0,0,0,0,0,0,0,0,.06,.36,.12,.72,.2,1.07,0,.04,.02,.09,.03,.13,.14,.64,.31,1.27,.51,1.88,.03,.08,.05,.16,.08,.24,.32,.95,.71,1.86,1.16,2.74,.06,.12,.13,.25,.2,.37,1.24,2.29,2.91,4.3,4.92,5.94,.07,.06,.15,.11,.22,.17,.41,.32,.82,.63,1.25,.92,.14,.09,.28,.18,.42,.27,.38,.24,.76,.47,1.16,.69,.18,.1,.35,.19,.53,.28,.38,.19,.76,.37,1.15,.54,.19,.08,.39,.17,.58,.25,.41,.16,.83,.3,1.25,.44,.18,.06,.36,.12,.55,.18,.61,.17,1.22,.32,1.85,.44,.29,.05,.56,.45,.81,1.02,.13,.28,.25,.61,.38,.96s.26,.71,.39,1.08c.2,.55,.41,1.09,.65,1.56,.39,.78,.84,1.34,1.4,1.34s.97-.56,1.36-1.34c.23-.47,.45-1.01,.65-1.56,.14-.37,.27-.73,.4-1.08s.26-.67,.39-.96c.26-.57,.53-.97,.82-1.02,.18-.03,.36-.09,.54-.12h0c3.58-.76,6.79-2.48,9.38-4.88,0,0,0,0,0,0,.82-.76,1.58-1.6,2.26-2.49,2.72,0,4.71-1.29,5.9-2.37,.79-.72,1.36-1.65,1.63-2.68,.34-1.27,.48-2.59,.43-3.9-.03-.74-.12-1.48-.26-2.2Zm-10.56,12.16c-2.55,2.52-5.85,4.32-9.59,5.01-.46,.09-.83,.32-1.14,.65-.6,.64-.99,1.67-1.44,2.88-.2,.54-.51,1.39-.8,1.96-.29-.58-.61-1.45-.8-2-.65-1.81-1.17-3.24-2.53-3.49-4.07-.75-7.6-2.81-10.23-5.69-2.22-2.43-3.79-5.44-4.46-8.76-.24-1.19-.38-2.42-.38-3.67,0-.91,.09-1.8,.22-2.67,.22-1.5,.61-2.95,1.17-4.32,.93-2.25,2.28-4.27,3.96-5.97,3.34-3.37,7.97-5.46,13.08-5.46,6.37,0,12,3.25,15.31,8.18,1.04,1.55,1.84,3.27,2.38,5.1-.58-.21-1.21-.33-1.85-.33-1.8,0-3.43,.88-4.46,2.24-.34,.45-.62,.96-.81,1.51-1.25,.39-2.22,1.46-2.46,2.81-.12,.68-.19,1.37-.21,2.06,0,.16,0,.32,0,.48,0,1.11,.12,2.22,.37,3.31,.25,1.09,.81,2.06,1.63,2.81,.9,.82,2.3,1.77,4.17,2.16-.35,.42-.73,.82-1.11,1.2Zm9.01-6.43c-.2,.77-.62,1.45-1.21,1.99-.95,.86-2.65,2-4.96,2-.09,0-.18,0-.27,0-2.18-.08-3.75-1.14-4.66-1.97-.6-.55-1.01-1.27-1.2-2.07-.21-.93-.38-2.09-.33-3.42,.02-.67,.09-1.3,.19-1.86,.18-1.03,1.07-1.79,2.12-1.79h.08c.29-2.03,2.01-3.59,4.11-3.59s3.83,1.56,4.11,3.59h.06c1.01,0,1.9,.7,2.1,1.69,.12,.58,.21,1.24,.24,1.96,.05,1.38-.15,2.56-.39,3.48Z"/>
    <path class="cls-9" d="M44.46,23.5c-.27-1.5-1.58-2.63-3.15-2.63-.98,0-1.86,.44-2.45,1.14-.24,.28-.42,.6-.55,.95-.07,.17-.12,.36-.15,.54h6.31Zm-3.15-1.88c.86,0,1.63,.44,2.07,1.13h-4.13c.44-.69,1.21-1.13,2.07-1.13Z"/>
    <path class="cls-9" d="M42.94,31.36l-.45-2.5c.4-.3,.66-.77,.66-1.3,0-.9-.73-1.62-1.62-1.62s-1.62,.73-1.62,1.62c0,.54,.26,1.01,.66,1.3l-.45,2.5c-.03,.18,.06,.36,.23,.43,.28,.11,.67,.23,1.14,.23,.51,0,.92-.11,1.21-.23,.17-.07,.26-.25,.23-.43Z"/>
  </g>
</svg>